# xmcd CD database file
#
# Track frame offsets:
#	300
#	19365
#	39682
#	64601
#	86524
#	108333
#	119868
#	142488
#	158855
#	184174
#	197403
#	224201
#
# Disc length: 3355 seconds
#
# Revision: 0
# Processed by: cddbd v1.5.2PL0 Copyright (c) Steve Scherf et al.
# Submitted via: CDex 2.16
#
DISCID=c00d170c
DTITLE=Haymo Doerk - Shadows of The Past
DYEAR=2004
DGENRE=Jazz
TTITLE0=Dennis The Menace
TTITLE1=Warnemuende
TTITLE2=Merciless
TTITLE3=Dabberwocky
TTITLE4=Breakfast in The Sun
TTITLE5=Meditation
TTITLE6=Dance Or Die
TTITLE7=Breakthrough
TTITLE8=The Trip (Part I)
TTITLE9=Intermezzo
TTITLE10=TurnAround
TTITLE11=Mountain Morning
EXTD=YEAR: 2004
EXTT0=
EXTT1=
EXTT2=
EXTT3=
EXTT4=
EXTT5=
EXTT6=
EXTT7=
EXTT8=
EXTT9=
EXTT10=
EXTT11=
PLAYORDER=
